# xmcd
#
# Track frame offsets: 
#        150
#        16607
#        30355
#        45967
#        66968
#        82088
#        96037
#        111526
#        129467
#        145431
#        163245
#        177934
#        203112
#        222726
#        238363
#        266118
#
# Disc length: 3556 seconds
#
# Revision: 0
# Processed by: cddbd v1.5.2PL0 Copyright (c) Steve Scherf et al.
# Submitted via: ExactAudioCopy v0.99pb5
#
DISCID=ee0de210
DTITLE=Blues Attitude - Paintin' The Blues With A Phat Brush
DYEAR=2006
DGENRE=Blues
TTITLE0=Messin' With The Kid
TTITLE1=Jump Swing Baby
TTITLE2=Empty Arms
TTITLE3=Austin Bound
TTITLE4=Mr. Jones
TTITLE5=Crosscut Saw
TTITLE6=Mojo 
TTITLE7=RMC
TTITLE8=White Line Fever
TTITLE9=Just Got Back From Baby's
TTITLE10=Stray Kat Strut
TTITLE11=Stolen Thrills
TTITLE12=Folsom
TTITLE13=Treat Her Right
TTITLE14=Drinking Song
TTITLE15=Data Track
EXTD=
EXTT0=
EXTT1=
EXTT2=
EXTT3=
EXTT4=
EXTT5=
EXTT6=
EXTT7=
EXTT8=
EXTT9=
EXTT10=
EXTT11=
EXTT12=
EXTT13=
EXTT14=
EXTT15=
PLAYORDER=
